<svg xmlns="http://www.w3.org/2000/svg" viewBox="0 0 345 171"><g fill="#787CB5" fill-rule="evenodd"><path d="M96 170c-1.7-.5-4.9-2.3-6-3.6 0-4.5.5-8.5.8-11.8.2-3.2.8-7.4 1.3-9.1 2.5-9.6 10.2-23 23-40l-.5-3a39 39 0 00-1.2-4.9c-1-3-1.6-8-1-8 .8 0 1.7 0 3.7 6.3 2.2 6.6 3.3 9.6.5 12.5A129 129 0 0094.5 147c-.9 3.4-2.4 17.8-2 18.5.1 0 1 .5 2.8 1a31 31 0 0019.1-2l2.7-1-.2-10.4-.1-10.9c5.5-4.7 12.3-10.3 20.5-16.8 3.2-2.6 7.4-6.2 9.2-8 4.4-4.1 4.6-6 4.6-16.7 0-6 .3-8.3-.4-10.5-.6-1.5-.9-3-.7-3.1.6-.6 2.4.4 3 1.8 1.5 3.1 1.1 19.7-.6 26.4-.7 2.7-4.5 6.7-11.9 12.5a191.9 191.9 0 01-19.4 15c-.8.4-1 1.6-1.2 10-.3 6.5-.3 10.8 0 12.7-5.2 2.4-9.3 4-12.4 4.7-4.7 1-8.1 1-11.6-.2z" fill-rule="nonzero"/><path d="M71.9 160.2c-3.2-.7-7.7-2.1-9.5-4.2-2.1-2.3-2.2-1.8 1.5-15.8a80 80 0 014.1-13 175 175 0 0112.8-14c6.7-6.7 11.6-12.2 12.1-13.3.4-1 1-4 1.2-6.5.3-3.8.5-4.6 1.2-4.5 2 .4 2 8.7 0 13.2-.7 1.7-4 5.2-11.3 12.5a214.8 214.8 0 00-12.5 13 41 41 0 00-5.4 15 93 93 0 01-1.7 6.5l-1.1 3.6 1.2 1.3c.6.7 2.3 1.6 3.6 2 3 1 10 1.7 12.5 1.2 2.3-.4 2.7-1.5 3.6-8.8.8-6.6 1.3-7.9 4-12 3.7-5.6 8.8-8.6 8.8-5.3 0 1-1.3 1.8-3.2 3.2-4 2.9-5.5 6-7.2 14.9-1.6 8.3-1.9 10.5-3.7 11.3-1.7.8-8.6.2-11-.3zM295.3 150.8c-1.1-2.7.7-18.8 2.4-21.9 1-1.6 1.8-1.2 1.4.7-1 6-1.9 12.7-1.9 15.4 0 3 3 .8 5-.5 2.5-1.5 5-3.6 6-4.4l3.2-3 6.1.4c5 .2 7.3 0 12-.8 6-1.1 14.3-.9 13.4 0-.3.2-3.8 1.2-7.8 2.2a51.2 51.2 0 01-14.5 1.7h-7.3l-2.7 2.4c-2.6 2.4-15 8.7-15.3 7.8zM333.8 127.8a73 73 0 00-28.4-11c-3.7-.6-4-1.8-.4-1.8 1.5 0 2.7-.2 2.7-.3 0-.9-1-3-3.8-6-1-1.5-3.3-4.2-4-5.1-7.4-10.5-28-28.3-55.5-46.1-12.2-8-42.4-23.5-45.4-25-3-1.6-6-3.9-6-7.5 0-4.1 2.6-8.2 12.7-15.3 3.4-2.4 3-4.7 0-5.3-3.6-.7-8.6-1.2-16 .7a58.1 58.1 0 00-30.6 17c-5.9 5.2-7 5.4-8.8 5.7-3.6.5-11.8.7-16.3.7-4.4 0-16.7-1.4-18-3.5-.2-.6.1-.7 1.3-.5l6 1c3.2.3 16.5.8 25.5-.6 2 0 4.7-1.7 8.2-5C171.9 6.2 179.8 5 189.7 2.1c6.3-1.8 11-1 14.1-1 5 .2 6.7 2.3 7.3 3.4.5 1.1 0 5.1-3 7.2-2.7 1.7-12.6 9.2-12.1 13 0 2.7 4 4.6 7.8 6.8 4 2.2 21.3 11 27.9 14.8A371.2 371.2 0 01268 70c6.2 4.2 12.6 9.4 16.5 13.5 2.6 2.7 7 6.7 9.3 9 2.1 2.2 5.5 6.2 7.5 8.8 2 2.7 2.1 3.3 4.3 6 2.1 2.5 3.2 5.5 4.2 6.9 1.1 1.3.6 1 6 2.4a77.1 77.1 0 0118 7.6c5.2 3.7 8.6 6.7 9.7 8.6.9 1.4 2 3.1 1.2 3.1-.2 0-6.7-5.7-10.9-8.1zM293.8 123.2c-1.7-1.6-14.7-9.4-31.4-14a132.2 132.2 0 00-28-5.3c-18.2-1.4-32.5-.9-53.7 2.2-9.5 1.3-17.8.8-23.1-1.5-4.8-2-2.9-3.2 3.8-1.7 4.5 1 11.4 1.3 17.6 0 12.9-2.7 34-3.7 54.2-2.5 10.5.7 14.8 1.4 24.7 4.3 3.8 1.1 8.1 2.4 9.6 2.7 3.6.9 15.5 5.9 19.6 8.3 7.4 4.3 10.4 7 10.4 8.5 0 .7.6 1.6.4 1.7-.3.1-2.3-1-4-2.7zM2.3 99.4c-2-1.8-.5-3.7-.5-6.7s-2.2-5.6.5-7.2c2.7-1.7 5.6 1.4 9 1.4 3.7 0 8.2-.6 12.4-2 12.8-5 15.8-7.8 17.2-9.4 2.3-2.6 3.6-4.5 6.1-15.3 1.3-5.5 3.1-11.3 3.6-12.8 1.6-4.6 4.6-9.7 5.7-11.1a26 26 0 0112-5.9c9.1-2.3 34.5-11 36-10.5 1.3.4 8.3 6.8 13.9 10 5.5 3.1 14.6 10.7 14.7 13 .2 2.2-.2 5.7-1.6 9.1a61.7 61.7 0 01-21.9 24.3c-3.6 2.5-14.5 10-28.9 12.5-.8-2-1-14.4-.6-20.4.4-6 1.6-18.7 4.1-23.3 2.5-4.6 4.8-7 6-8.1 1.2-1.1 2.7-2.7 1 .8-1.9 3.4-2.7 4.8-4.8 9C84 50.9 83 62 82.6 68.4c-.4 6.3-.4 14.2 0 17.4a86 86 0 0025.7-12 65 65 0 0020.1-22.9c1.2-2.5 2.4-6.6.8-8.8a71 71 0 00-12.4-10c-1.5-.7-5.8-4.2-13.1-10.2-19 6-30.6 9.5-34.7 10.3A23 23 0 0058 37.4a53 53 0 00-5.4 10.5c-1 3-2.4 10.2-3.4 13.2S47 73.7 43 77.5A61.1 61.1 0 0124.6 87a45.5 45.5 0 01-13 1.8c-3.7 0-6.5-1.6-7.8-1.3-1.3.4 0 2.5 0 4.7s-1.3 4.4 0 5.2c1.3.8 3.6-1.9 6-1.9 2.3 0 22.7 1.2 34.6-1.5 12-2.6 17.2-6.3 19.9-7.7 2.7-1.4 3.6.7 2.8 3.9-.5 2-.3 3 .7 3 5-1.6 7.6-3 8-4 .6-1.6 2 2 0 3s-6 3.4-8.4 3.8c-1.5.2-2.6-.2-3.1-1.3l.6-5.9a84 84 0 01-20.5 7.7c-8 1.5-16.2 2.1-34.3 1.3-2 0-5.7 3.3-7.8 1.5z" fill-rule="nonzero"/><path d="M65 64c0-4 .3-4.9 1-5 .6-.2 1 .1 1 1.2 0 2.4-1.2 8.7-1.7 8.7-.3 0-.4-2.2-.3-4.8zM66.3 50.9c-.2-.2-.3-1.1-.3-2 0-3.5 5.5-6.3 8.6-4.4 1.1.7 1.9 2.9 1 2.7-.3 0-4.6-3.4-8.2 1.5-.2.3-.9 2.4-1 2.2z" fill-rule="nonzero"/><path d="M69.9 54.9c1 0 2-1.3 2-3s-1-3-2-3-2 1.3-2 3 1 3 2 3z"/><path d="M55.7 85.8c-2-.3-2.5-2 0-2.9 9.3-3.3 10.2-9.2 10.2-10.2s-.8-1.5 1.5-2.3c2.7-1 8.2 0 8.6.6 0 3.3-2.4 8.8-7.6 12.3-5 3.4-11.3 2.7-12.7 2.5zm10.7-4c2.8-1.8 6.6-5.2 6.6-9.3-1.2-.7-3.6-.7-4.5 0 0 3-2.2 5.7-4.6 7.5a22.7 22.7 0 01-6.5 3.3c-3.1.5-.3.9 1.7.6 1.6-.1 4.8-.6 7.3-2.2z" fill-rule="nonzero"/></g></svg>